<?xml version="1.0" encoding="UTF-8"?>
<!DOCTYPE svg PUBLIC "-//W3C//DTD SVG 1.1//EN" "http://www.w3.org/Graphics/SVG/1.1/DTD/svg11.dtd">
<svg xmlns="http://www.w3.org/2000/svg" version="1.1" width="643px" height="604px" style="shape-rendering:geometricPrecision; text-rendering:geometricPrecision; image-rendering:optimizeQuality; fill-rule:evenodd; clip-rule:evenodd" xmlns:xlink="http://www.w3.org/1999/xlink">
<g><path style="opacity:0.984" fill="#facc14" d="M 167.5,7.5 C 171.792,7.03488 175.792,7.86822 179.5,10C 330.833,104 482.167,198 633.5,292C 638.743,296.588 638.743,301.255 633.5,306C 480.833,403.333 328.167,500.667 175.5,598C 168.675,599.186 164.508,596.353 163,589.5C 162.5,551.501 162.333,513.501 162.5,475.5C 111.557,478.009 62.5568,469.509 15.5,450C 12.5379,447.713 10.3712,444.88 9,441.5C 8.33333,412.167 8.33333,382.833 9,353.5C 10.4421,349.725 12.9421,346.892 16.5,345C 22.8333,344.333 29.1667,344.333 35.5,345C 73.3191,372.212 115.652,385.379 162.5,384.5C 162.832,375.475 162.498,366.475 161.5,357.5C 146.208,354.529 130.875,351.696 115.5,349C 87.8591,344.355 63.1924,333.355 41.5,316C 13.9262,288.231 4.42624,255.065 13,216.5C 19.9317,193.902 32.765,175.402 51.5,161C 74.4385,144.039 100.105,133.372 128.5,129C 139.767,127.142 151.1,125.976 162.5,125.5C 162.333,89.8318 162.5,54.1651 163,18.5C 163.414,14.3459 164.914,10.6793 167.5,7.5 Z M 162.5,139.5 C 207.693,137.588 251.36,144.754 293.5,161C 294.495,186.092 294.828,211.259 294.5,236.5C 292.473,236.662 290.473,236.495 288.5,236C 245.269,206.693 197.936,196.693 146.5,206C 138.168,208.246 131.002,212.413 125,218.5C 121.184,227.555 121.85,236.222 127,244.5C 133.35,249.515 140.516,253.015 148.5,255C 173.729,260.428 199.063,265.428 224.5,270C 245.462,274.09 264.462,282.423 281.5,295C 301.134,313.557 309.968,336.391 308,363.5C 305.09,391.497 292.256,413.663 269.5,430C 241.979,448.139 211.646,458.139 178.5,460C 125.344,464.764 74.0106,457.264 24.5,437.5C 23.5002,411.175 23.1669,384.842 23.5,358.5C 25.5273,358.338 27.5273,358.505 29.5,359C 74.5498,390.763 124.55,403.429 179.5,397C 186.905,395.865 193.905,393.532 200.5,390C 210.359,382.746 213.192,373.246 209,361.5C 206.054,356.555 201.888,353.055 196.5,351C 191.228,349.131 185.894,347.465 180.5,346C 159.209,341.785 137.876,337.785 116.5,334C 96.4708,329.98 77.8041,322.647 60.5,312C 34.7712,292.699 22.9379,266.866 25,234.5C 27.5053,210.654 38.0053,191.154 56.5,176C 75.2094,161.481 96.2094,151.481 119.5,146C 133.846,142.928 148.179,140.761 162.5,139.5 Z M 161.5,217.5 C 162.493,225.65 162.826,233.983 162.5,242.5C 154.415,241.562 146.748,239.228 139.5,235.5C 135.587,231.955 135.587,228.455 139.5,225C 146.632,221.56 153.965,219.06 161.5,217.5 Z"/></g>
</svg>
